<mxfile host="app.diagrams.net" agent="Mozilla/5.0 (X11; Ubuntu; Linux x86_64; rv:140.0) Gecko/20100101 Firefox/140.0" version="27.2.0">
  <diagram name="Page-1" id="ycP8oJXVeD5qWcz3IB__">
    <mxGraphModel dx="2714" dy="2236" grid="1" gridSize="10" guides="1" tooltips="1" connect="1" arrows="1" fold="1" page="1" pageScale="1" pageWidth="850" pageHeight="1100" math="0" shadow="0">
      <root>
        <mxCell id="0" />
        <mxCell id="1" parent="0" />
        <mxCell id="6XlRBn3eG5UaSSwNxz0f-1" value="«interface»&lt;br&gt;&lt;b&gt;IPostTimeCard&lt;/b&gt;" style="html=1;whiteSpace=wrap;" vertex="1" parent="1">
          <mxGeometry x="-200" y="230" width="110" height="50" as="geometry" />
        </mxCell>
        <mxCell id="6XlRBn3eG5UaSSwNxz0f-2" value="«interface»&lt;br&gt;&lt;b&gt;IPostSalesReceipt&lt;/b&gt;" style="html=1;whiteSpace=wrap;" vertex="1" parent="1">
          <mxGeometry x="-50" y="230" width="110" height="50" as="geometry" />
        </mxCell>
        <mxCell id="6XlRBn3eG5UaSSwNxz0f-3" value="«interface»&lt;br&gt;&lt;b&gt;IPostUnionServiceCharge&lt;/b&gt;" style="html=1;whiteSpace=wrap;" vertex="1" parent="1">
          <mxGeometry x="100" y="230" width="160" height="50" as="geometry" />
        </mxCell>
        <mxCell id="6XlRBn3eG5UaSSwNxz0f-5" value="" style="edgeStyle=orthogonalEdgeStyle;rounded=0;orthogonalLoop=1;jettySize=auto;html=1;" edge="1" parent="1" source="6XlRBn3eG5UaSSwNxz0f-4" target="6XlRBn3eG5UaSSwNxz0f-2">
          <mxGeometry relative="1" as="geometry" />
        </mxCell>
        <mxCell id="6XlRBn3eG5UaSSwNxz0f-6" style="edgeStyle=orthogonalEdgeStyle;rounded=0;orthogonalLoop=1;jettySize=auto;html=1;entryX=0.5;entryY=1;entryDx=0;entryDy=0;" edge="1" parent="1" source="6XlRBn3eG5UaSSwNxz0f-4" target="6XlRBn3eG5UaSSwNxz0f-1">
          <mxGeometry relative="1" as="geometry" />
        </mxCell>
        <mxCell id="6XlRBn3eG5UaSSwNxz0f-7" style="edgeStyle=orthogonalEdgeStyle;rounded=0;orthogonalLoop=1;jettySize=auto;html=1;entryX=0.5;entryY=1;entryDx=0;entryDy=0;" edge="1" parent="1" source="6XlRBn3eG5UaSSwNxz0f-4" target="6XlRBn3eG5UaSSwNxz0f-3">
          <mxGeometry relative="1" as="geometry" />
        </mxCell>
        <mxCell id="6XlRBn3eG5UaSSwNxz0f-4" value="«interface»&lt;br&gt;&lt;b&gt;IPost&lt;/b&gt;" style="html=1;whiteSpace=wrap;" vertex="1" parent="1">
          <mxGeometry x="-50" y="320" width="110" height="50" as="geometry" />
        </mxCell>
        <mxCell id="6XlRBn3eG5UaSSwNxz0f-9" value="Employee" style="swimlane;fontStyle=1;align=center;verticalAlign=top;childLayout=stackLayout;horizontal=1;startSize=26;horizontalStack=0;resizeParent=1;resizeParentMax=0;resizeLast=0;collapsible=1;marginBottom=0;whiteSpace=wrap;html=1;" vertex="1" parent="1">
          <mxGeometry x="-80" y="-120" width="160" height="86" as="geometry" />
        </mxCell>
        <mxCell id="6XlRBn3eG5UaSSwNxz0f-10" value="+ field: type" style="text;strokeColor=none;fillColor=none;align=left;verticalAlign=top;spacingLeft=4;spacingRight=4;overflow=hidden;rotatable=0;points=[[0,0.5],[1,0.5]];portConstraint=eastwest;whiteSpace=wrap;html=1;" vertex="1" parent="6XlRBn3eG5UaSSwNxz0f-9">
          <mxGeometry y="26" width="160" height="26" as="geometry" />
        </mxCell>
        <mxCell id="6XlRBn3eG5UaSSwNxz0f-11" value="" style="line;strokeWidth=1;fillColor=none;align=left;verticalAlign=middle;spacingTop=-1;spacingLeft=3;spacingRight=3;rotatable=0;labelPosition=right;points=[];portConstraint=eastwest;strokeColor=inherit;" vertex="1" parent="6XlRBn3eG5UaSSwNxz0f-9">
          <mxGeometry y="52" width="160" height="8" as="geometry" />
        </mxCell>
        <mxCell id="6XlRBn3eG5UaSSwNxz0f-12" value="+ method(type): type" style="text;strokeColor=none;fillColor=none;align=left;verticalAlign=top;spacingLeft=4;spacingRight=4;overflow=hidden;rotatable=0;points=[[0,0.5],[1,0.5]];portConstraint=eastwest;whiteSpace=wrap;html=1;" vertex="1" parent="6XlRBn3eG5UaSSwNxz0f-9">
          <mxGeometry y="60" width="160" height="26" as="geometry" />
        </mxCell>
        <mxCell id="6XlRBn3eG5UaSSwNxz0f-13" value="Hourly Employee" style="swimlane;fontStyle=1;align=center;verticalAlign=top;childLayout=stackLayout;horizontal=1;startSize=26;horizontalStack=0;resizeParent=1;resizeParentMax=0;resizeLast=0;collapsible=1;marginBottom=0;whiteSpace=wrap;html=1;" vertex="1" parent="1">
          <mxGeometry x="300" y="-250" width="160" height="86" as="geometry" />
        </mxCell>
        <mxCell id="6XlRBn3eG5UaSSwNxz0f-14" value="+ field: type" style="text;strokeColor=none;fillColor=none;align=left;verticalAlign=top;spacingLeft=4;spacingRight=4;overflow=hidden;rotatable=0;points=[[0,0.5],[1,0.5]];portConstraint=eastwest;whiteSpace=wrap;html=1;" vertex="1" parent="6XlRBn3eG5UaSSwNxz0f-13">
          <mxGeometry y="26" width="160" height="26" as="geometry" />
        </mxCell>
        <mxCell id="6XlRBn3eG5UaSSwNxz0f-15" value="" style="line;strokeWidth=1;fillColor=none;align=left;verticalAlign=middle;spacingTop=-1;spacingLeft=3;spacingRight=3;rotatable=0;labelPosition=right;points=[];portConstraint=eastwest;strokeColor=inherit;" vertex="1" parent="6XlRBn3eG5UaSSwNxz0f-13">
          <mxGeometry y="52" width="160" height="8" as="geometry" />
        </mxCell>
        <mxCell id="6XlRBn3eG5UaSSwNxz0f-16" value="+ method(type): type" style="text;strokeColor=none;fillColor=none;align=left;verticalAlign=top;spacingLeft=4;spacingRight=4;overflow=hidden;rotatable=0;points=[[0,0.5],[1,0.5]];portConstraint=eastwest;whiteSpace=wrap;html=1;" vertex="1" parent="6XlRBn3eG5UaSSwNxz0f-13">
          <mxGeometry y="60" width="160" height="26" as="geometry" />
        </mxCell>
        <mxCell id="6XlRBn3eG5UaSSwNxz0f-17" value="Monthly Employee" style="swimlane;fontStyle=1;align=center;verticalAlign=top;childLayout=stackLayout;horizontal=1;startSize=26;horizontalStack=0;resizeParent=1;resizeParentMax=0;resizeLast=0;collapsible=1;marginBottom=0;whiteSpace=wrap;html=1;" vertex="1" parent="1">
          <mxGeometry x="300" y="-20" width="160" height="86" as="geometry" />
        </mxCell>
        <mxCell id="6XlRBn3eG5UaSSwNxz0f-18" value="+ field: type" style="text;strokeColor=none;fillColor=none;align=left;verticalAlign=top;spacingLeft=4;spacingRight=4;overflow=hidden;rotatable=0;points=[[0,0.5],[1,0.5]];portConstraint=eastwest;whiteSpace=wrap;html=1;" vertex="1" parent="6XlRBn3eG5UaSSwNxz0f-17">
          <mxGeometry y="26" width="160" height="26" as="geometry" />
        </mxCell>
        <mxCell id="6XlRBn3eG5UaSSwNxz0f-19" value="" style="line;strokeWidth=1;fillColor=none;align=left;verticalAlign=middle;spacingTop=-1;spacingLeft=3;spacingRight=3;rotatable=0;labelPosition=right;points=[];portConstraint=eastwest;strokeColor=inherit;" vertex="1" parent="6XlRBn3eG5UaSSwNxz0f-17">
          <mxGeometry y="52" width="160" height="8" as="geometry" />
        </mxCell>
        <mxCell id="6XlRBn3eG5UaSSwNxz0f-20" value="+ method(type): type" style="text;strokeColor=none;fillColor=none;align=left;verticalAlign=top;spacingLeft=4;spacingRight=4;overflow=hidden;rotatable=0;points=[[0,0.5],[1,0.5]];portConstraint=eastwest;whiteSpace=wrap;html=1;" vertex="1" parent="6XlRBn3eG5UaSSwNxz0f-17">
          <mxGeometry y="60" width="160" height="26" as="geometry" />
        </mxCell>
        <mxCell id="6XlRBn3eG5UaSSwNxz0f-21" value="Monthly Comission Employee" style="swimlane;fontStyle=1;align=center;verticalAlign=top;childLayout=stackLayout;horizontal=1;startSize=26;horizontalStack=0;resizeParent=1;resizeParentMax=0;resizeLast=0;collapsible=1;marginBottom=0;whiteSpace=wrap;html=1;" vertex="1" parent="1">
          <mxGeometry x="300" y="-140" width="160" height="86" as="geometry" />
        </mxCell>
        <mxCell id="6XlRBn3eG5UaSSwNxz0f-22" value="+ field: type" style="text;strokeColor=none;fillColor=none;align=left;verticalAlign=top;spacingLeft=4;spacingRight=4;overflow=hidden;rotatable=0;points=[[0,0.5],[1,0.5]];portConstraint=eastwest;whiteSpace=wrap;html=1;" vertex="1" parent="6XlRBn3eG5UaSSwNxz0f-21">
          <mxGeometry y="26" width="160" height="26" as="geometry" />
        </mxCell>
        <mxCell id="6XlRBn3eG5UaSSwNxz0f-23" value="" style="line;strokeWidth=1;fillColor=none;align=left;verticalAlign=middle;spacingTop=-1;spacingLeft=3;spacingRight=3;rotatable=0;labelPosition=right;points=[];portConstraint=eastwest;strokeColor=inherit;" vertex="1" parent="6XlRBn3eG5UaSSwNxz0f-21">
          <mxGeometry y="52" width="160" height="8" as="geometry" />
        </mxCell>
        <mxCell id="6XlRBn3eG5UaSSwNxz0f-24" value="+ method(type): type" style="text;strokeColor=none;fillColor=none;align=left;verticalAlign=top;spacingLeft=4;spacingRight=4;overflow=hidden;rotatable=0;points=[[0,0.5],[1,0.5]];portConstraint=eastwest;whiteSpace=wrap;html=1;" vertex="1" parent="6XlRBn3eG5UaSSwNxz0f-21">
          <mxGeometry y="60" width="160" height="26" as="geometry" />
        </mxCell>
        <mxCell id="6XlRBn3eG5UaSSwNxz0f-30" value="" style="edgeStyle=orthogonalEdgeStyle;rounded=0;orthogonalLoop=1;jettySize=auto;html=1;" edge="1" parent="1" source="6XlRBn3eG5UaSSwNxz0f-28" target="6XlRBn3eG5UaSSwNxz0f-29">
          <mxGeometry relative="1" as="geometry" />
        </mxCell>
        <mxCell id="6XlRBn3eG5UaSSwNxz0f-28" value="Employee Handler" style="rounded=0;whiteSpace=wrap;html=1;" vertex="1" parent="1">
          <mxGeometry x="-290" y="-140" width="120" height="60" as="geometry" />
        </mxCell>
        <mxCell id="6XlRBn3eG5UaSSwNxz0f-29" value="«interface»&lt;br&gt;&lt;b&gt;IEmployee&lt;/b&gt;" style="html=1;whiteSpace=wrap;" vertex="1" parent="1">
          <mxGeometry x="-480" y="-135" width="110" height="50" as="geometry" />
        </mxCell>
        <mxCell id="6XlRBn3eG5UaSSwNxz0f-34" style="edgeStyle=orthogonalEdgeStyle;rounded=0;orthogonalLoop=1;jettySize=auto;html=1;entryX=0;entryY=0.105;entryDx=0;entryDy=0;entryPerimeter=0;" edge="1" parent="1" source="6XlRBn3eG5UaSSwNxz0f-28" target="6XlRBn3eG5UaSSwNxz0f-9">
          <mxGeometry relative="1" as="geometry" />
        </mxCell>
        <mxCell id="6XlRBn3eG5UaSSwNxz0f-36" value="" style="edgeStyle=orthogonalEdgeStyle;rounded=0;orthogonalLoop=1;jettySize=auto;html=1;" edge="1" parent="1" source="6XlRBn3eG5UaSSwNxz0f-35" target="6XlRBn3eG5UaSSwNxz0f-3">
          <mxGeometry relative="1" as="geometry" />
        </mxCell>
        <mxCell id="6XlRBn3eG5UaSSwNxz0f-35" value="Post Union Service Charge Handler" style="rounded=0;whiteSpace=wrap;html=1;" vertex="1" parent="1">
          <mxGeometry x="120" y="110" width="120" height="60" as="geometry" />
        </mxCell>
        <mxCell id="6XlRBn3eG5UaSSwNxz0f-37" style="edgeStyle=orthogonalEdgeStyle;rounded=0;orthogonalLoop=1;jettySize=auto;html=1;entryX=1;entryY=0.151;entryDx=0;entryDy=0;entryPerimeter=0;" edge="1" parent="1" source="6XlRBn3eG5UaSSwNxz0f-22" target="6XlRBn3eG5UaSSwNxz0f-9">
          <mxGeometry relative="1" as="geometry" />
        </mxCell>
        <mxCell id="6XlRBn3eG5UaSSwNxz0f-39" style="edgeStyle=orthogonalEdgeStyle;rounded=0;orthogonalLoop=1;jettySize=auto;html=1;entryX=1.006;entryY=0.174;entryDx=0;entryDy=0;entryPerimeter=0;" edge="1" parent="1" source="6XlRBn3eG5UaSSwNxz0f-18" target="6XlRBn3eG5UaSSwNxz0f-9">
          <mxGeometry relative="1" as="geometry" />
        </mxCell>
        <mxCell id="6XlRBn3eG5UaSSwNxz0f-40" style="edgeStyle=orthogonalEdgeStyle;rounded=0;orthogonalLoop=1;jettySize=auto;html=1;entryX=1.006;entryY=0.151;entryDx=0;entryDy=0;entryPerimeter=0;" edge="1" parent="1" source="6XlRBn3eG5UaSSwNxz0f-14" target="6XlRBn3eG5UaSSwNxz0f-9">
          <mxGeometry relative="1" as="geometry" />
        </mxCell>
        <mxCell id="6XlRBn3eG5UaSSwNxz0f-43" style="edgeStyle=orthogonalEdgeStyle;rounded=0;orthogonalLoop=1;jettySize=auto;html=1;entryX=0.5;entryY=0;entryDx=0;entryDy=0;" edge="1" parent="1" source="6XlRBn3eG5UaSSwNxz0f-41" target="6XlRBn3eG5UaSSwNxz0f-2">
          <mxGeometry relative="1" as="geometry" />
        </mxCell>
        <mxCell id="6XlRBn3eG5UaSSwNxz0f-41" value="Post Sales Receipt Handler" style="rounded=0;whiteSpace=wrap;html=1;" vertex="1" parent="1">
          <mxGeometry x="-50" y="110" width="120" height="60" as="geometry" />
        </mxCell>
        <mxCell id="6XlRBn3eG5UaSSwNxz0f-44" style="edgeStyle=orthogonalEdgeStyle;rounded=0;orthogonalLoop=1;jettySize=auto;html=1;entryX=0.5;entryY=0;entryDx=0;entryDy=0;" edge="1" parent="1" source="6XlRBn3eG5UaSSwNxz0f-42" target="6XlRBn3eG5UaSSwNxz0f-1">
          <mxGeometry relative="1" as="geometry" />
        </mxCell>
        <mxCell id="6XlRBn3eG5UaSSwNxz0f-42" value="Post Time Card Handler" style="rounded=0;whiteSpace=wrap;html=1;" vertex="1" parent="1">
          <mxGeometry x="-220" y="110" width="120" height="60" as="geometry" />
        </mxCell>
        <mxCell id="6XlRBn3eG5UaSSwNxz0f-45" style="edgeStyle=orthogonalEdgeStyle;rounded=0;orthogonalLoop=1;jettySize=auto;html=1;entryX=0.525;entryY=1;entryDx=0;entryDy=0;entryPerimeter=0;" edge="1" parent="1" source="6XlRBn3eG5UaSSwNxz0f-41" target="6XlRBn3eG5UaSSwNxz0f-12">
          <mxGeometry relative="1" as="geometry" />
        </mxCell>
        <mxCell id="6XlRBn3eG5UaSSwNxz0f-46" style="edgeStyle=orthogonalEdgeStyle;rounded=0;orthogonalLoop=1;jettySize=auto;html=1;entryX=0.531;entryY=1;entryDx=0;entryDy=0;entryPerimeter=0;" edge="1" parent="1" source="6XlRBn3eG5UaSSwNxz0f-42" target="6XlRBn3eG5UaSSwNxz0f-12">
          <mxGeometry relative="1" as="geometry" />
        </mxCell>
        <mxCell id="6XlRBn3eG5UaSSwNxz0f-47" style="edgeStyle=orthogonalEdgeStyle;rounded=0;orthogonalLoop=1;jettySize=auto;html=1;entryX=0.581;entryY=1;entryDx=0;entryDy=0;entryPerimeter=0;" edge="1" parent="1" source="6XlRBn3eG5UaSSwNxz0f-35" target="6XlRBn3eG5UaSSwNxz0f-12">
          <mxGeometry relative="1" as="geometry" />
        </mxCell>
        <mxCell id="6XlRBn3eG5UaSSwNxz0f-50" value="" style="edgeStyle=orthogonalEdgeStyle;rounded=0;orthogonalLoop=1;jettySize=auto;html=1;" edge="1" parent="1" source="6XlRBn3eG5UaSSwNxz0f-48" target="6XlRBn3eG5UaSSwNxz0f-49">
          <mxGeometry relative="1" as="geometry" />
        </mxCell>
        <mxCell id="6XlRBn3eG5UaSSwNxz0f-51" style="edgeStyle=orthogonalEdgeStyle;rounded=0;orthogonalLoop=1;jettySize=auto;html=1;entryX=0.5;entryY=0;entryDx=0;entryDy=0;" edge="1" parent="1" source="6XlRBn3eG5UaSSwNxz0f-48" target="6XlRBn3eG5UaSSwNxz0f-9">
          <mxGeometry relative="1" as="geometry" />
        </mxCell>
        <mxCell id="6XlRBn3eG5UaSSwNxz0f-48" value="Run PayRoll Handler" style="rounded=0;whiteSpace=wrap;html=1;" vertex="1" parent="1">
          <mxGeometry x="-60" y="-220" width="120" height="60" as="geometry" />
        </mxCell>
        <mxCell id="6XlRBn3eG5UaSSwNxz0f-49" value="«interface»&lt;br&gt;&lt;b&gt;IRunPayRoll&lt;/b&gt;" style="html=1;whiteSpace=wrap;" vertex="1" parent="1">
          <mxGeometry x="-55" y="-330" width="110" height="50" as="geometry" />
        </mxCell>
      </root>
    </mxGraphModel>
  </diagram>
</mxfile>
